{
	"asset":{
		"generator":"Khronos glTF Blender I/O v4.1.63",
		"version":"2.0"
	},
	"extensionsUsed":[
		"KHR_materials_emissive_strength"
	],
	"scene":0,
	"scenes":[
		{
			"name":"Scene",
			"nodes":[
				0,
				1,
				2,
				3,
				4
			]
		}
	],
	"nodes":[
		{
			"mesh":0,
			"name":"Plane",
			"scale":[
				-101.47919464111328,
				-27.20670509338379,
				-101.47919464111328
			],
			"translation":[
				-1.7580955028533936,
				-0.05621647834777832,
				1.6903049945831299
			]
		},
		{
			"mesh":1,
			"name":"MAZE",
			"scale":[
				-23.683759689331055,
				-22.152915954589844,
				-22.152915954589844
			],
			"translation":[
				6.377224445343018,
				-0.16521894931793213,
				-5.4734578132629395
			]
		},
		{
			"mesh":2,
			"name":"Text",
			"rotation":[
				0,
				-0.7071068286895752,
				0,
				0.7071068286895752
			],
			"scale":[
				2.169804573059082,
				1.9520375728607178,
				2.3197455406188965
			],
			"translation":[
				-39.452117919921875,
				0.06108084321022034,
				-58.20890808105469
			]
		},
		{
			"mesh":3,
			"name":"Text.001",
			"rotation":[
				0.5,
				-0.5,
				0.5,
				0.4999999701976776
			],
			"scale":[
				2.169804573059082,
				1.9520375728607178,
				2.3197455406188965
			],
			"translation":[
				-39.452117919921875,
				6.628829479217529,
				38.09354782104492
			]
		},
		{
			"mesh":4,
			"name":"Text.002",
			"rotation":[
				0.5,
				-0.5,
				0.5,
				0.5
			],
			"scale":[
				2.169804573059082,
				1.9520375728607178,
				2.3197455406188965
			],
			"translation":[
				52.30576705932617,
				7.419862747192383,
				41.843997955322266
			]
		}
	],
	"materials":[
		{
			"doubleSided":true,
			"name":"Material",
			"normalTexture":{
				"index":0
			},
			"pbrMetallicRoughness":{
				"baseColorTexture":{
					"index":1
				},
				"metallicFactor":0,
				"metallicRoughnessTexture":{
					"index":2
				}
			}
		},
		{
			"doubleSided":true,
			"name":"Material.003",
			"normalTexture":{
				"index":3
			},
			"pbrMetallicRoughness":{
				"baseColorTexture":{
					"index":4
				},
				"metallicFactor":0,
				"metallicRoughnessTexture":{
					"index":5
				}
			}
		},
		{
			"doubleSided":true,
			"emissiveFactor":[
				1,
				0.0008338472689501941,
				0.003362791147083044
			],
			"extensions":{
				"KHR_materials_emissive_strength":{
					"emissiveStrength":4.099999904632568
				}
			},
			"name":"Material.002",
			"pbrMetallicRoughness":{
				"baseColorFactor":[
					0.800039529800415,
					0.0013260187115520239,
					0,
					1
				],
				"metallicFactor":0,
				"roughnessFactor":0.5
			}
		}
	],
	"meshes":[
		{
			"name":"Plane",
			"primitives":[
				{
					"attributes":{
						"POSITION":0,
						"NORMAL":1,
						"TEXCOORD_0":2
					},
					"indices":3,
					"material":0
				}
			]
		},
		{
			"name":"Plane.002",
			"primitives":[
				{
					"attributes":{
						"POSITION":4,
						"NORMAL":5,
						"TEXCOORD_0":6
					},
					"indices":7,
					"material":1
				}
			]
		},
		{
			"name":"Text",
			"primitives":[
				{
					"attributes":{
						"POSITION":8,
						"NORMAL":9,
						"TEXCOORD_0":10
					},
					"indices":11,
					"material":2
				}
			]
		},
		{
			"name":"Text.001",
			"primitives":[
				{
					"attributes":{
						"POSITION":12,
						"NORMAL":13,
						"TEXCOORD_0":14
					},
					"indices":11,
					"material":2
				}
			]
		},
		{
			"name":"Text.002",
			"primitives":[
				{
					"attributes":{
						"POSITION":15,
						"NORMAL":16,
						"TEXCOORD_0":17
					},
					"indices":18,
					"material":2
				}
			]
		}
	],
	"textures":[
		{
			"sampler":0,
			"source":0
		},
		{
			"sampler":0,
			"source":1
		},
		{
			"sampler":0,
			"source":2
		},
		{
			"sampler":0,
			"source":3
		},
		{
			"sampler":0,
			"source":4
		},
		{
			"sampler":0,
			"source":5
		}
	],
	"images":[
		{
			"mimeType":"image/png",
			"name":"rock_path_nor_gl_2k",
			"uri":"rock_path_nor_gl_2k.png"
		},
		{
			"mimeType":"image/jpeg",
			"name":"rock_path_diff_2k",
			"uri":"rock_path_diff_2k.jpg"
		},
		{
			"mimeType":"image/png",
			"name":"rock_path_rough_2k",
			"uri":"rock_path_rough_2k.png"
		},
		{
			"mimeType":"image/png",
			"name":"japanese_stone_wall_nor_gl_2k",
			"uri":"japanese_stone_wall_nor_gl_2k.png"
		},
		{
			"mimeType":"image/jpeg",
			"name":"japanese_stone_wall_diff_2k",
			"uri":"japanese_stone_wall_diff_2k.jpg"
		},
		{
			"mimeType":"image/png",
			"name":"japanese_stone_wall_rough_2k",
			"uri":"japanese_stone_wall_rough_2k.png"
		}
	],
	"accessors":[
		{
			"bufferView":0,
			"componentType":5126,
			"count":10404,
			"max":[
				1,
				0,
				1
			],
			"min":[
				-1,
				0,
				-1
			],
			"type":"VEC3"
		},
		{
			"bufferView":1,
			"componentType":5126,
			"count":10404,
			"type":"VEC3"
		},
		{
			"bufferView":2,
			"componentType":5126,
			"count":10404,
			"type":"VEC2"
		},
		{
			"bufferView":3,
			"componentType":5123,
			"count":61206,
			"type":"SCALAR"
		},
		{
			"bufferView":4,
			"componentType":5126,
			"count":3873,
			"max":[
				2.196366786956787,
				0,
				2.642446994781494
			],
			"min":[
				-2.131377696990967,
				-0.696882963180542,
				-2.6225452423095703
			],
			"type":"VEC3"
		},
		{
			"bufferView":5,
			"componentType":5126,
			"count":3873,
			"type":"VEC3"
		},
		{
			"bufferView":6,
			"componentType":5126,
			"count":3873,
			"type":"VEC2"
		},
		{
			"bufferView":7,
			"componentType":5123,
			"count":6624,
			"type":"SCALAR"
		},
		{
			"bufferView":8,
			"componentType":5126,
			"count":997,
			"max":[
				2.9200000762939453,
				0.03999999910593033,
				0.009000000543892384
			],
			"min":[
				0.04000000283122063,
				-0.03999999910593033,
				-0.6910000443458557
			],
			"type":"VEC3"
		},
		{
			"bufferView":9,
			"componentType":5126,
			"count":997,
			"type":"VEC3"
		},
		{
			"bufferView":10,
			"componentType":5126,
			"count":997,
			"type":"VEC2"
		},
		{
			"bufferView":11,
			"componentType":5123,
			"count":2880,
			"type":"SCALAR"
		},
		{
			"bufferView":12,
			"componentType":5126,
			"count":997,
			"max":[
				2.9200000762939453,
				0.03999999910593033,
				0.009000000543892384
			],
			"min":[
				0.04000000283122063,
				-0.03999999910593033,
				-0.6910000443458557
			],
			"type":"VEC3"
		},
		{
			"bufferView":13,
			"componentType":5126,
			"count":997,
			"type":"VEC3"
		},
		{
			"bufferView":14,
			"componentType":5126,
			"count":997,
			"type":"VEC2"
		},
		{
			"bufferView":15,
			"componentType":5126,
			"count":660,
			"max":[
				1.3925001621246338,
				0.03999999910593033,
				0.3500000238418579
			],
			"min":[
				-1.3925000429153442,
				-0.03999999910593033,
				-0.3500000238418579
			],
			"type":"VEC3"
		},
		{
			"bufferView":16,
			"componentType":5126,
			"count":660,
			"type":"VEC3"
		},
		{
			"bufferView":17,
			"componentType":5126,
			"count":660,
			"type":"VEC2"
		},
		{
			"bufferView":18,
			"componentType":5123,
			"count":1872,
			"type":"SCALAR"
		}
	],
	"bufferViews":[
		{
			"buffer":0,
			"byteLength":124848,
			"byteOffset":0,
			"target":34962
		},
		{
			"buffer":0,
			"byteLength":124848,
			"byteOffset":124848,
			"target":34962
		},
		{
			"buffer":0,
			"byteLength":83232,
			"byteOffset":249696,
			"target":34962
		},
		{
			"buffer":0,
			"byteLength":122412,
			"byteOffset":332928,
			"target":34963
		},
		{
			"buffer":0,
			"byteLength":46476,
			"byteOffset":455340,
			"target":34962
		},
		{
			"buffer":0,
			"byteLength":46476,
			"byteOffset":501816,
			"target":34962
		},
		{
			"buffer":0,
			"byteLength":30984,
			"byteOffset":548292,
			"target":34962
		},
		{
			"buffer":0,
			"byteLength":13248,
			"byteOffset":579276,
			"target":34963
		},
		{
			"buffer":0,
			"byteLength":11964,
			"byteOffset":592524,
			"target":34962
		},
		{
			"buffer":0,
			"byteLength":11964,
			"byteOffset":604488,
			"target":34962
		},
		{
			"buffer":0,
			"byteLength":7976,
			"byteOffset":616452,
			"target":34962
		},
		{
			"buffer":0,
			"byteLength":5760,
			"byteOffset":624428,
			"target":34963
		},
		{
			"buffer":0,
			"byteLength":11964,
			"byteOffset":630188,
			"target":34962
		},
		{
			"buffer":0,
			"byteLength":11964,
			"byteOffset":642152,
			"target":34962
		},
		{
			"buffer":0,
			"byteLength":7976,
			"byteOffset":654116,
			"target":34962
		},
		{
			"buffer":0,
			"byteLength":7920,
			"byteOffset":662092,
			"target":34962
		},
		{
			"buffer":0,
			"byteLength":7920,
			"byteOffset":670012,
			"target":34962
		},
		{
			"buffer":0,
			"byteLength":5280,
			"byteOffset":677932,
			"target":34962
		},
		{
			"buffer":0,
			"byteLength":3744,
			"byteOffset":683212,
			"target":34963
		}
	],
	"samplers":[
		{
			"magFilter":9729,
			"minFilter":9987
		}
	],
	"buffers":[
		{
			"byteLength":686956,
			"uri":"Dmaze.bin"
		}
	]
}
